<?xml version="1.0" standalone="no"?>
<!DOCTYPE svg PUBLIC "-//W3C//DTD SVG 20010904//EN"
 "http://www.w3.org/TR/2001/REC-SVG-20010904/DTD/svg10.dtd">
<svg version="1.0" xmlns="http://www.w3.org/2000/svg"
 width="1412.000000pt" height="1412.000000pt" viewBox="0 0 1412.000000 1412.000000"
 preserveAspectRatio="xMidYMid meet">
<metadata>
Created by potrace 1.14, written by Peter Selinger 2001-2017
</metadata>
<g transform="translate(0.000000,1412.000000) scale(0.100000,-0.100000)"
fill="#000000" stroke="none">
<path d="M9033 12647 c-33 -37 -106 -146 -176 -262 -36 -60 -80 -130 -97 -155
-31 -44 -31 -45 -25 -12 4 17 4 32 1 32 -2 0 -28 -39 -57 -87 -79 -133 -264
-344 -301 -343 -7 0 1 12 17 26 110 94 173 168 253 297 60 95 66 114 47 143
-8 13 -23 24 -31 24 -34 0 -118 -76 -189 -171 -41 -53 -100 -119 -130 -146
-85 -74 -214 -147 -353 -201 -173 -67 -223 -71 -436 -31 -312 58 -362 69 -476
105 -120 38 -127 41 -118 50 8 7 231 -14 331 -32 159 -28 223 -35 337 -35 259
1 499 82 638 215 42 39 102 117 102 132 0 3 -34 -26 -75 -65 -98 -93 -167
-137 -283 -178 -201 -72 -421 -85 -662 -40 -74 14 -126 25 -115 26 11 1 58 -6
105 -14 229 -41 386 -38 575 10 125 31 225 81 314 156 58 49 159 167 123 145
-6 -4 -12 3 -14 16 -4 33 -29 27 -177 -38 -69 -31 -133 -58 -141 -59 -8 -2
-16 -4 -17 -5 -2 -2 -7 -4 -13 -5 -5 -1 -13 -4 -17 -5 -5 -1 -11 -2 -15 -1 -5
0 -8 -4 -8 -10 0 -6 -6 -9 -14 -6 -7 3 -26 -1 -41 -9 -15 -8 -31 -12 -35 -9
-5 3 -12 0 -15 -6 -4 -5 -14 -8 -22 -5 -8 3 -20 3 -26 -1 -7 -5 -25 -9 -42
-10 -55 -4 -239 -3 -275 1 -19 2 -57 7 -85 10 -27 4 -59 9 -70 13 -11 3 -31 8
-45 9 -14 2 -41 5 -60 7 -108 14 -182 17 -335 16 -182 -2 -241 -4 -265 -12
-52 -16 -190 -43 -190 -37 0 9 72 36 215 81 55 18 95 34 88 36 -19 7 -200 -45
-293 -83 -117 -49 -152 -52 -58 -6 42 21 149 60 237 87 89 27 158 51 153 54
-11 9 -13 31 -2 31 5 0 10 7 10 17 0 14 -11 15 -94 10 -193 -13 -339 -58 -498
-154 -89 -54 -96 -57 -148 -52 -126 9 -286 3 -350 -14 -157 -42 -386 -183
-541 -334 -146 -142 -242 -290 -315 -488 -22 -58 -43 -99 -61 -114 -16 -13
-28 -29 -28 -35 0 -6 -7 -10 -16 -9 -8 2 -30 -11 -49 -28 -19 -17 -26 -25 -15
-18 20 14 20 13 1 -9 -20 -23 -32 -30 -21 -12 3 6 2 10 -3 10 -13 0 -43 -35
-36 -42 3 -3 -3 -5 -13 -4 -10 0 -17 -5 -15 -12 1 -8 -2 -11 -7 -8 -10 6 -34
-18 -26 -26 3 -3 -3 -11 -12 -19 -16 -13 -17 -12 -4 4 7 9 9 17 4 17 -13 0
-75 -65 -68 -72 3 -3 -3 -11 -12 -19 -16 -13 -17 -12 -4 4 27 34 -2 16 -74
-47 -40 -35 -98 -80 -129 -101 -31 -20 -54 -40 -51 -45 3 -4 -3 -7 -12 -6 -10
0 -18 -4 -18 -11 0 -6 -4 -15 -9 -20 -5 -5 -6 -3 -2 5 10 17 3 15 -38 -9 -20
-12 -33 -26 -29 -32 3 -6 1 -7 -5 -3 -7 4 -31 -6 -54 -22 -50 -33 -100 -60
-180 -97 -32 -15 -93 -52 -135 -83 -43 -30 -190 -136 -328 -235 -313 -224
-361 -263 -514 -412 -237 -230 -327 -355 -493 -680 l-107 -210 -1 104 c0 57
-2 102 -4 100 -2 -2 -9 -58 -16 -124 -6 -66 -16 -124 -22 -130 -7 -7 -8 4 -4
35 5 41 9 153 7 223 -1 17 -6 27 -16 27 -8 0 -15 5 -15 10 0 6 -6 10 -14 10
-12 0 -30 -39 -55 -120 -20 -68 -40 -209 -56 -396 -18 -226 -19 -232 -106
-499 -37 -115 -78 -258 -90 -317 -13 -60 -26 -108 -30 -108 -3 0 -34 63 -68
140 -67 149 -156 293 -217 350 -44 41 -41 36 47 -95 74 -112 96 -152 164 -309
54 -125 68 -166 54 -166 -5 0 -9 4 -9 10 0 26 -140 323 -189 401 -67 106 -133
191 -141 181 -3 -4 -14 -8 -25 -7 -11 0 -21 -8 -23 -19 -6 -28 44 -158 115
-300 90 -180 148 -326 184 -463 35 -136 38 -217 14 -403 -47 -362 -66 -768
-46 -978 23 -253 54 -394 166 -772 24 -80 60 -222 80 -315 83 -387 127 -508
263 -711 61 -91 263 -337 391 -476 39 -43 73 -89 77 -103 3 -14 11 -22 17 -18
6 3 7 1 3 -6 -10 -16 3 -53 16 -45 6 4 8 2 4 -4 -9 -14 25 -83 37 -75 6 3 7 1
3 -5 -8 -14 24 -73 36 -66 4 3 5 -3 1 -12 -5 -13 -3 -15 7 -9 9 5 11 4 6 -3
-7 -13 37 -86 46 -76 3 3 5 -3 4 -13 0 -10 5 -17 12 -15 8 1 11 -2 7 -8 -8
-13 19 -52 29 -42 4 4 7 2 6 -3 -5 -22 1 -36 12 -29 7 4 8 3 4 -5 -9 -14 12
-43 25 -35 5 3 7 -1 4 -8 -3 -7 5 -24 16 -38 11 -14 17 -19 13 -11 -4 9 -3 12
4 7 6 -4 9 -12 6 -19 -4 -11 147 -208 220 -286 24 -26 26 -31 9 -22 -12 6 -50
43 -85 82 -146 166 -164 179 -81 62 67 -96 120 -153 195 -211 61 -48 89 -76
56 -56 -86 51 -166 126 -261 246 -52 64 -83 95 -95 93 -9 -1 -23 3 -31 9 -11
8 -13 8 -7 -1 4 -7 3 -13 -3 -13 -24 0 54 -178 126 -288 64 -96 201 -195 527
-379 93 -53 181 -105 195 -117 14 -12 183 -176 376 -366 418 -412 589 -557
775 -658 96 -52 754 -333 843 -361 164 -50 191 -52 767 -41 378 6 563 14 630
24 93 14 160 24 210 31 14 2 108 17 210 34 101 18 279 43 395 56 115 14 246
32 290 40 79 16 458 124 670 192 185 59 471 178 570 237 28 16 104 56 170 89
251 123 622 340 790 462 126 92 290 261 466 480 284 355 355 468 610 980 136
274 189 372 189 350 1 -18 10 5 24 58 23 84 31 105 40 96 7 -7 -63 -410 -81
-466 -9 -29 -21 -53 -25 -53 -5 0 -6 5 -2 12 4 7 3 8 -4 4 -7 -4 -12 -13 -12
-19 0 -16 -49 -172 -120 -382 -32 -93 -60 -186 -64 -205 l-7 -35 17 30 c10 17
22 35 29 40 6 6 42 56 79 112 38 56 73 101 78 100 10 -2 30 51 94 241 33 102
68 274 79 402 4 36 13 93 21 128 8 35 14 82 14 105 0 38 63 423 90 553 26 123
64 417 75 579 13 191 59 632 75 720 5 28 12 118 15 200 9 241 16 343 30 453
13 104 20 127 29 101 12 -32 77 -274 110 -405 39 -153 60 -219 49 -149 -9 64
-70 307 -118 476 -45 156 -54 202 -36 184 12 -13 77 -239 141 -490 60 -237 69
-267 80 -260 5 3 15 -2 23 -10 32 -32 40 -18 33 58 -21 205 -118 574 -239 904
-59 158 -207 624 -207 649 0 8 -10 25 -22 39 -26 30 -54 96 -113 267 -66 192
-127 307 -185 348 -28 20 -30 20 -64 3 -33 -15 -36 -21 -36 -57 0 -30 -3 -37
-10 -26 -5 8 -10 26 -10 40 0 17 -3 21 -11 13 -26 -26 -20 -243 11 -360 6 -22
3 -48 -7 -80 -12 -38 -13 -79 -8 -192 3 -79 9 -149 12 -155 4 -6 8 -72 9 -146
1 -74 7 -439 14 -810 8 -418 9 -719 3 -790 -7 -89 -10 38 -16 555 -7 699 -23
1109 -40 1045 -6 -22 -5 -127 3 -278 6 -134 12 -540 12 -905 0 -771 12 -680
-128 -962 -46 -94 -84 -179 -84 -190 -1 -11 -7 -31 -15 -45 -8 -14 -14 -38
-14 -55 0 -27 2 -24 22 22 25 58 37 74 37 51 0 -14 -49 -148 -99 -268 -66
-159 -224 -480 -236 -480 -5 0 17 51 79 184 26 54 45 100 43 102 -10 10 -41
-44 -107 -186 -40 -85 -103 -211 -141 -280 -60 -110 -76 -131 -131 -174 -35
-28 -93 -74 -131 -104 -37 -30 -210 -206 -385 -391 -186 -196 -361 -371 -420
-420 -56 -46 -102 -88 -102 -93 0 -17 -230 -197 -230 -180 0 4 -4 2 -8 -4 -4
-6 -33 -22 -64 -37 -46 -21 -57 -29 -52 -44 5 -15 4 -16 -5 -3 -10 13 -13 13
-22 -3 -8 -14 -18 -17 -37 -12 -24 6 -25 5 -10 -7 16 -11 13 -13 -27 -15 -25
-1 -45 2 -45 7 0 5 -7 7 -16 3 -13 -5 -13 -7 -2 -14 9 -6 5 -9 -14 -9 -14 0
-28 4 -30 9 -1 5 -24 7 -50 4 -29 -3 -45 -10 -41 -16 4 -6 1 -7 -8 -1 -8 4
-67 9 -132 9 -102 1 -118 -2 -122 -17 -3 -9 -12 -18 -20 -20 -10 -2 -12 -7 -5
-18 19 -30 390 -22 477 11 48 18 29 -12 -44 -71 -43 -34 -125 -102 -183 -152
-96 -82 -129 -102 -375 -230 -148 -78 -293 -149 -322 -159 -149 -53 -420 -86
-573 -69 -47 5 -146 18 -220 29 -152 23 -369 28 -528 11 -203 -22 -463 -99
-678 -200 -81 -38 -105 -45 -120 -37 -29 16 -305 238 -442 356 -117 100 -182
150 -182 138 0 -14 317 -281 581 -489 23 -19 29 -27 17 -28 -16 0 -308 228
-424 332 -81 72 -199 168 -208 168 -4 0 -4 -5 0 -12 4 -6 3 -8 -4 -5 -15 10
-42 -3 -42 -21 0 -46 156 -197 407 -395 57 -44 101 -82 99 -84 -10 -10 -190
43 -261 77 -83 40 -529 339 -697 467 -114 88 -191 163 -263 259 -132 174 -350
561 -366 648 -16 91 -90 256 -76 171 2 -16 14 -56 26 -87 11 -32 21 -72 21
-89 0 -52 181 -384 321 -589 136 -200 216 -271 607 -539 105 -73 192 -134 192
-137 0 -6 3 -8 -150 90 -345 221 -528 375 -640 542 -173 256 -315 514 -342
623 -44 174 -58 201 -103 201 -51 0 -57 -18 -45 -155 7 -88 15 -129 34 -171
14 -30 23 -54 22 -54 -2 0 -38 39 -80 87 -92 104 -186 185 -396 338 -85 62
-165 124 -178 138 -23 24 -39 95 -76 332 -18 112 -34 183 -46 204 -13 21 -14
37 25 -233 19 -132 33 -242 30 -244 -7 -7 -24 71 -40 188 -31 226 -55 326 -77
328 -7 0 -24 4 -36 8 l-24 7 4 -191 c3 -214 6 -210 -68 -130 -97 105 -181 272
-237 469 -53 184 -133 621 -161 879 -40 360 -56 417 -233 834 -124 293 -166
418 -214 643 -26 123 -33 177 -37 318 -3 103 0 210 8 275 11 96 128 586 165
689 17 50 19 62 5 41 -15 -23 -54 -156 -100 -340 -23 -91 -44 -167 -47 -170
-13 -13 13 139 48 275 56 222 103 345 187 498 24 44 41 86 38 94 -4 9 -1 22 5
29 6 8 9 21 5 29 -3 9 -2 13 4 10 10 -6 35 33 26 42 -3 3 -1 14 5 24 6 13 6
19 -1 19 -5 0 -12 0 -15 0 -3 0 -4 -1 -2 -3 1 -1 -9 -14 -21 -27 -28 -30 -53
-75 -47 -84 3 -3 2 -4 -2 -1 -7 5 -21 -17 -77 -120 -41 -75 -56 -96 -56 -78 0
12 126 389 175 523 37 100 129 288 176 357 55 79 180 308 196 356 26 79 103
187 179 251 93 77 342 237 489 312 66 35 190 92 275 129 270 117 414 196 551
304 135 106 144 112 364 229 186 99 423 240 493 294 65 51 163 171 203 249 16
33 27 59 25 59 -3 0 -34 -42 -70 -94 -36 -51 -97 -122 -135 -158 -82 -78 -294
-207 -631 -385 -55 -29 -61 -31 -39 -10 15 13 75 50 135 82 177 94 436 250
496 298 30 25 80 78 110 119 59 77 130 197 110 184 -8 -5 -12 1 -12 18 0 59
-29 39 -211 -144 -106 -107 -140 -135 -231 -187 -128 -73 -125 -59 15 68 238
217 319 279 475 366 192 106 450 204 647 244 124 26 226 20 430 -23 267 -56
361 -70 506 -75 224 -9 431 19 650 87 53 16 113 32 135 36 79 12 311 65 374
85 189 60 354 174 578 396 299 296 446 504 486 686 12 55 -12 25 -38 -47 -15
-41 -48 -106 -74 -145 -42 -63 -328 -391 -356 -408 -15 -10 49 70 70 88 38 31
228 255 264 310 45 70 100 197 100 232 0 31 -33 61 -58 53 -11 -4 -57 -52
-103 -107 -46 -56 -107 -119 -137 -141 -29 -22 -56 -46 -59 -54 -3 -8 -9 -12
-13 -9 -4 2 -16 -5 -26 -17 -28 -31 -225 -200 -229 -196 -2 2 35 82 83 178 92
183 138 288 130 295 -2 3 -46 -77 -98 -178 -104 -204 -194 -362 -212 -373 -7
-4 3 19 22 52 55 96 197 373 232 451 28 65 30 75 18 97 -18 35 -35 38 -57 13z
m-3123 -677 c0 -6 -26 -10 -57 -10 -114 0 -222 -44 -393 -157 -182 -120 -308
-256 -417 -449 -12 -21 -22 -32 -23 -23 0 8 24 56 53 105 88 150 301 347 477
443 87 47 132 66 190 81 74 19 170 25 170 10z m1150 -10 c47 -5 15 -6 -85 -3
-88 3 -162 7 -164 9 -7 6 169 2 249 -6z m138 -17 c-10 -2 -28 -2 -40 0 -13 2
-5 4 17 4 22 1 32 -1 23 -4z m1807 -80 c-145 -138 -241 -210 -360 -269 -107
-53 -282 -110 -307 -101 -7 2 7 9 32 16 156 40 293 98 405 174 65 44 220 174
274 231 19 20 37 36 40 36 4 -1 -34 -40 -84 -87z m-3144 39 c-11 -16 -28 -35
-37 -43 -10 -8 -53 -61 -97 -118 -58 -74 -91 -108 -119 -121 -21 -9 -35 -20
-31 -24 4 -4 -1 -4 -11 0 -15 6 -17 4 -11 -6 5 -9 4 -11 -4 -6 -15 9 -53 -3
-46 -15 3 -5 -2 -6 -11 -2 -12 4 -15 3 -10 -5 5 -8 1 -10 -10 -5 -12 4 -15 3
-10 -5 5 -8 1 -10 -10 -5 -12 4 -15 3 -10 -5 5 -8 1 -10 -10 -5 -12 4 -15 3
-10 -5 5 -8 1 -10 -10 -5 -13 5 -15 3 -9 -7 5 -8 4 -11 -3 -6 -14 9 -83 -25
-75 -37 3 -6 1 -7 -5 -3 -14 9 -95 -37 -85 -48 4 -4 -1 -4 -11 0 -15 6 -17 4
-11 -6 5 -8 4 -11 -3 -6 -13 8 -75 -28 -65 -38 4 -4 -1 -4 -11 0 -12 4 -17 4
-13 -2 3 -5 -3 -10 -14 -10 -10 0 -19 3 -19 7 0 4 23 43 52 86 69 105 200 231
328 316 171 113 270 155 363 156 l48 1 -20 -28z m204 -2 c-3 -5 -16 -15 -28
-21 -22 -12 -22 -12 -3 10 19 21 43 30 31 11z m555 -40 c12 -8 10 -10 -10 -9
-14 1 -36 5 -50 9 -23 7 -22 8 10 9 19 0 42 -4 50 -9z m-305 -30 c-27 -16 -54
-30 -60 -30 -5 0 13 14 40 30 28 16 55 30 60 30 6 0 -12 -14 -40 -30z m190 11
c15 -7 6 -10 -38 -16 -63 -8 -84 -1 -46 14 29 12 57 12 84 2z m-1140 -351 c-3
-5 -12 -10 -18 -10 -7 0 -6 4 3 10 19 12 23 12 15 0z m1390 -85 c44 -8 130
-25 190 -39 288 -65 529 -77 769 -37 129 21 188 23 79 3 -316 -61 -524 -53
-903 34 -179 41 -354 54 -462 35 -188 -32 -517 -158 -711 -270 -147 -85 -359
-261 -561 -466 -60 -60 -90 -87 -67 -58 105 130 441 425 583 512 195 118 482
233 718 286 76 18 269 18 365 0z m-1830 -711 c-33 -26 -291 -147 -272 -128 7
7 278 142 287 143 3 0 -4 -7 -15 -15z m-166 -201 c-184 -185 -227 -214 -435
-296 -62 -24 -144 -66 -184 -93 -143 -98 -169 -114 -173 -106 -5 8 283 239
408 328 44 31 106 79 138 106 39 34 95 66 175 102 64 29 126 57 137 63 52 30
28 -9 -66 -104z m-329 -88 c0 -2 -39 -32 -87 -66 -49 -34 -142 -105 -208 -158
-193 -156 -300 -237 -326 -250 l-24 -12 25 23 c14 13 41 35 60 50 19 15 100
78 180 141 117 92 367 275 378 277 1 0 2 -2 2 -5z m155 -301 c-22 -19 -110
-70 -195 -113 -161 -82 -460 -215 -467 -208 -2 2 65 35 149 72 241 107 424
200 503 256 54 38 58 36 10 -7z m-735 -359 c0 -2 -24 -17 -52 -31 -56 -28
-328 -199 -388 -243 -21 -15 -29 -19 -21 -8 14 18 227 161 311 210 121 70 150
84 150 72z m-716 -612 c-15 -27 -38 -67 -51 -91 -29 -50 -43 -50 -17 0 25 48
83 138 89 138 3 0 -6 -21 -21 -47z m-379 -774 c-105 -299 -125 -354 -119 -319
16 93 158 490 170 477 2 -2 -21 -73 -51 -158z m-586 -379 c-1 -39 -7 -74 -12
-77 -7 -4 -8 13 -4 48 4 30 7 64 7 77 0 12 2 22 6 22 3 0 4 -32 3 -70z m9448
28 c-3 -7 -5 -2 -5 12 0 14 2 19 5 13 2 -7 2 -19 0 -25z m10 -60 c-3 -7 -5 -2
-5 12 0 14 2 19 5 13 2 -7 2 -19 0 -25z m10 -50 c-3 -8 -6 -5 -6 6 -1 11 2 17
5 13 3 -3 4 -12 1 -19z m10 -50 c-3 -8 -6 -5 -6 6 -1 11 2 17 5 13 3 -3 4 -12
1 -19z m-9662 -375 c-15 -87 -29 -160 -32 -163 -7 -7 6 125 17 175 5 22 14 74
22 115 7 41 14 65 16 53 2 -12 -9 -93 -23 -180z m9662 60 c-3 -10 -5 -2 -5 17
0 19 2 27 5 18 2 -10 2 -26 0 -35z m-9638 -423 c-20 -158 -23 -236 -23 -540
-1 -315 2 -373 22 -520 44 -322 113 -650 181 -855 31 -96 0 -41 -89 157 -97
214 -142 346 -165 486 -18 109 -18 108 4 582 6 129 15 350 21 490 5 142 19
317 30 395 30 215 35 227 38 100 2 -70 -5 -177 -19 -295z m9648 293 c-3 -10
-5 -2 -5 17 0 19 2 27 5 18 2 -10 2 -26 0 -35z m-9361 -500 c-3 -82 -9 -206
-12 -278 -13 -279 45 -761 132 -1110 22 -86 97 -339 120 -400 5 -14 4 -17 -3
-10 -13 12 -83 225 -117 355 -63 240 -116 556 -137 815 -11 145 -7 528 8 703
10 124 16 79 9 -75z m9559 -258 l5 -50 -14 60 c-8 33 -17 76 -20 95 -5 31 -4
29 10 -10 8 -25 17 -67 19 -95z m-66 -155 c0 -38 -3 -49 -9 -35 -6 16 -9 12
-12 -20 -3 -27 -5 -17 -6 31 -1 39 1 93 5 120 l7 49 7 -45 c4 -25 8 -70 8
-100z m-9872 -22 c-2 -29 -3 -6 -3 52 0 58 1 81 3 53 2 -29 2 -77 0 -105z
m-10 -170 c-2 -24 -4 -7 -4 37 0 44 2 63 4 43 2 -21 2 -57 0 -80z m689 -243
c15 -44 72 -186 127 -315 173 -407 201 -503 232 -800 22 -217 30 -273 81 -545
93 -491 186 -724 358 -887 33 -32 57 -60 53 -64 -11 -11 -126 107 -173 178
-91 137 -164 327 -214 558 -58 264 -103 546 -130 815 -23 230 -63 362 -223
735 -110 257 -157 392 -182 523 -22 118 -17 115 16 -8 16 -60 41 -146 55 -190z
m-699 -237 c-3 -8 -6 -5 -6 6 -1 11 2 17 5 13 3 -3 4 -12 1 -19z m717 -293
c19 -83 55 -256 81 -385 52 -267 81 -388 130 -544 37 -116 44 -150 20 -101
-42 89 -114 355 -155 575 -22 121 -62 314 -85 415 -7 33 -19 85 -25 115 -6 30
-14 64 -17 75 -4 14 -2 17 6 10 6 -6 26 -78 45 -160z m-604 -50 c0 -5 -5 -3
-10 5 -5 8 -10 20 -10 25 0 6 5 3 10 -5 5 -8 10 -19 10 -25z m694 -87 c57
-153 74 -232 100 -463 13 -115 23 -211 21 -213 -7 -8 -51 180 -105 449 -33
162 -62 303 -66 312 -3 9 -2 17 3 17 5 0 26 -46 47 -102z m-546 -228 c130
-268 155 -323 144 -316 -15 9 -228 443 -271 554 -27 68 -26 80 2 22 11 -25 68
-142 125 -260z m-18 -400 c61 -244 129 -378 309 -605 65 -83 85 -115 62 -100
-15 9 -154 184 -199 252 -88 130 -150 276 -192 453 -23 97 -24 108 -11 95 5
-6 19 -48 31 -95z m180 -299 c74 -148 127 -263 118 -254 -30 27 -134 184 -172
261 -29 58 -96 238 -96 258 0 26 36 -38 150 -265z m9097 -1014 c-91 -183 -197
-383 -234 -445 -125 -208 -474 -653 -629 -803 -80 -76 -206 -172 -306 -231
-119 -71 -85 -34 54 58 162 107 323 262 510 494 276 342 350 460 583 921 97
193 180 348 183 344 3 -3 -69 -155 -161 -338z m-427 179 c0 -2 -8 -10 -17 -17
-16 -13 -17 -12 -4 4 13 16 21 21 21 13z m-446 -178 c-88 -90 -200 -205 -250
-256 -49 -52 -98 -99 -109 -104 -17 -10 110 127 345 371 53 56 160 150 170
151 3 0 -67 -73 -156 -162z m780 -94 c-166 -325 -240 -444 -429 -690 -263
-344 -418 -502 -619 -630 -21 -13 5 28 89 141 112 151 208 275 237 306 35 39
102 126 183 239 112 158 159 222 212 288 24 30 40 59 36 64 -3 6 -1 8 4 5 12
-7 45 26 41 39 -2 5 2 11 7 12 20 7 35 25 33 38 -2 7 0 12 3 11 13 -4 40 27
35 40 -3 8 -2 11 3 8 12 -7 63 58 59 76 -2 7 4 13 12 14 8 0 14 8 14 18 -1 9
2 14 7 12 4 -3 45 47 90 110 45 64 83 114 86 112 2 -3 -44 -99 -103 -213z
m347 -45 c-5 -13 -10 -19 -10 -12 -1 15 10 45 15 40 3 -2 0 -15 -5 -28z
m-1100 -63 c-46 -67 -204 -239 -327 -354 -170 -162 -157 -138 25 46 92 92 202
209 245 260 44 50 81 92 83 92 2 0 -10 -20 -26 -44z m-6744 -101 c176 -126
338 -260 404 -337 101 -116 235 -295 227 -304 -3 -2 -49 52 -103 122 -167 216
-256 300 -532 499 -67 48 -124 94 -128 103 -5 13 -3 13 14 1 11 -8 64 -45 118
-84z m6193 -228 c0 -2 -17 -19 -37 -38 l-38 -34 34 38 c33 34 41 42 41 34z
m-6042 -111 c121 -91 196 -156 167 -145 -17 7 -248 182 -285 216 -65 61 -20
34 118 -71z m-383 74 c10 -11 16 -20 13 -20 -3 0 -13 9 -23 20 -10 11 -16 20
-13 20 3 0 13 -9 23 -20z m5880 -380 c-16 -11 -34 -20 -40 -20 -12 0 46 38 60
39 6 1 -3 -8 -20 -19z m0 -80 c-4 -6 -50 -44 -104 -84 -54 -41 -119 -93 -145
-115 -52 -45 -136 -105 -136 -97 0 15 368 306 387 306 2 0 1 -5 -2 -10z m666
-337 c-23 -44 -225 -219 -391 -339 -56 -41 -130 -86 -130 -80 0 2 84 68 187
147 103 79 221 177 262 217 41 39 76 72 78 72 2 0 -1 -8 -6 -17z m-871 -58 c0
-7 -91 -58 -95 -53 -3 3 16 17 43 31 51 29 52 29 52 22z m-410 -55 c-36 -28
-380 -208 -441 -231 -96 -37 -252 -68 -392 -79 -149 -11 -153 -11 -422 27
-159 22 -202 25 -365 20 -306 -9 -515 -59 -813 -194 -53 -25 -103 -43 -110
-40 -6 2 24 21 68 41 415 195 789 254 1215 192 249 -37 284 -39 435 -26 253
20 383 65 710 244 121 66 161 82 115 46z m1004 -62 c-5 -8 -1 -9 12 -4 23 9
19 5 -71 -66 -200 -158 -305 -227 -387 -253 -44 -14 -83 -23 -86 -20 -3 3 0 5
7 5 7 0 9 4 6 10 -4 6 1 7 11 3 12 -4 15 -3 10 5 -5 8 -1 10 10 5 12 -4 15 -3
10 6 -4 6 -4 10 1 9 15 -5 93 34 87 44 -3 5 -2 7 3 6 17 -4 53 14 47 24 -4 7
-2 8 4 4 12 -7 56 17 47 26 -3 2 1 5 8 5 15 0 277 172 276 181 -2 13 1 22 7
22 3 0 2 -5 -2 -12z m-5324 -220 c223 -209 379 -320 572 -406 177 -79 513
-225 593 -258 118 -49 264 -84 354 -85 42 0 85 -4 96 -9 13 -6 -9 -9 -67 -9
-148 -1 -275 33 -515 140 -87 39 -232 102 -323 141 -91 38 -205 90 -253 115
-131 68 -312 208 -471 366 -169 166 -160 170 14 5z m463 -215 c175 -103 381
-206 567 -285 52 -22 183 -80 290 -128 107 -48 202 -90 210 -94 8 -3 -14 -4
-50 -2 -99 7 -246 55 -445 143 -99 44 -240 106 -313 137 -74 31 -178 79 -232
106 -110 55 -296 191 -410 299 l-75 72 140 -72 c77 -40 220 -119 318 -176z
m2422 117 c58 -6 45 -7 -80 -8 -100 -1 -145 2 -135 8 17 11 110 11 215 0z
m229 -47 c141 -3 251 -10 244 -14 -12 -8 -294 -5 -623 5 -66 3 -160 0 -208 -5
-117 -13 -178 -8 -87 8 79 13 328 15 674 6z m1708 -8 c-45 -20 -215 -66 -220
-60 -7 6 39 23 138 50 97 27 130 31 82 10z m-3347 -92 c82 -17 119 -33 75 -33
-25 0 -184 48 -165 49 5 1 46 -6 90 -16z m898 -119 c86 -12 36 -23 -128 -28
-154 -5 -158 -5 -115 10 56 19 137 33 170 28 14 -2 47 -6 73 -10z m282 -63
c-16 -15 -498 -52 -484 -37 3 3 73 11 155 17 162 12 326 25 334 28 2 0 0 -3
-5 -8z m-1058 -377 c-3 -3 -12 -4 -19 -1 -8 3 -5 6 6 6 11 1 17 -2 13 -5z"/>
<path d="M11569 12559 c-27 -17 -144 -48 -261 -69 -158 -27 -415 -108 -530
-166 -94 -47 -320 -207 -388 -274 -75 -74 -195 -250 -265 -390 l-48 -95 17
-233 c10 -128 19 -281 21 -338 2 -58 6 -108 9 -111 3 -4 14 1 23 9 44 37 331
186 466 242 222 92 353 172 457 282 97 102 173 256 372 749 41 102 152 332
169 350 24 24 -12 63 -42 44z"/>
<path d="M9875 11457 c-121 -49 -317 -185 -429 -298 -15 -16 -32 -29 -37 -29
-5 0 -8 -4 -7 -8 2 -5 -15 -26 -37 -48 -22 -22 -48 -55 -59 -73 -10 -19 -25
-41 -33 -50 -30 -33 -133 -181 -133 -191 0 -5 -3 -10 -7 -10 -5 0 -19 -16 -32
-35 -13 -19 -28 -32 -34 -28 -6 4 -7 1 -3 -6 5 -7 1 -20 -7 -29 -9 -9 -51 -69
-95 -132 -44 -63 -94 -130 -111 -148 -17 -19 -31 -40 -31 -48 0 -8 -4 -14 -9
-14 -15 0 -33 -148 -26 -218 11 -110 32 -224 65 -351 41 -154 40 -153 180 -91
172 75 328 185 534 375 214 197 392 449 455 646 21 62 43 240 36 276 -2 10 -6
56 -9 103 -12 187 -41 405 -59 428 -13 17 -22 16 -112 -21z"/>
<path d="M8693 10149 c-7 -7 -13 -19 -13 -26 0 -7 -3 -13 -7 -13 -5 0 -26 -25
-47 -55 -22 -30 -43 -55 -48 -55 -5 0 -7 -4 -4 -8 2 -4 -13 -30 -35 -57 -21
-28 -39 -53 -39 -57 0 -4 -14 -22 -30 -40 -17 -18 -28 -39 -25 -46 3 -7 1 -10
-5 -7 -5 3 -14 -4 -20 -15 -6 -11 -7 -20 -3 -20 4 0 -4 -10 -19 -23 -14 -12
-93 -114 -173 -227 -81 -113 -151 -204 -157 -202 -5 1 -7 -1 -4 -6 3 -5 -15
-37 -39 -70 -25 -34 -42 -62 -38 -62 4 0 0 -6 -9 -12 -24 -19 -148 -198 -148
-214 0 -8 -4 -13 -9 -11 -5 1 -59 -68 -121 -153 -61 -85 -116 -157 -121 -160
-26 -16 78 -137 149 -174 39 -20 167 -39 207 -30 58 13 236 144 345 253 144
146 339 441 490 741 71 141 72 146 61 185 -45 159 -82 318 -92 397 -6 51 -15
102 -20 113 -4 11 -9 30 -11 43 -2 19 -5 21 -15 11z"/>
<path d="M9765 8860 c-3 -5 -1 -10 4 -10 6 0 11 5 11 10 0 6 -2 10 -4 10 -3 0
-8 -4 -11 -10z"/>
<path d="M6355 8693 c-675 -22 -1204 -210 -1537 -549 -103 -105 -150 -165
-225 -294 -151 -255 -241 -567 -274 -945 -16 -194 -5 -548 22 -670 44 -199
108 -399 179 -555 26 -58 53 -123 60 -145 20 -66 70 -175 123 -270 96 -171
210 -350 252 -395 23 -25 71 -83 105 -130 193 -260 431 -468 883 -773 205
-139 227 -151 353 -202 214 -86 425 -94 794 -30 248 44 416 105 566 205 256
172 331 238 549 485 174 196 401 472 462 562 75 110 163 264 163 285 0 58 59
-11 100 -117 72 -185 163 -318 313 -461 107 -102 230 -182 355 -232 114 -46
401 -117 531 -132 161 -19 401 -8 529 24 208 52 414 143 501 222 74 66 86 98
85 229 -2 160 -41 256 -144 349 -99 90 -186 125 -368 151 -532 75 -924 372
-1085 822 -102 282 -95 818 14 1079 16 39 55 113 85 165 78 131 139 254 166
335 30 91 32 251 4 334 -39 113 -87 184 -148 216 -39 20 -102 17 -151 -7 -60
-31 -259 -182 -340 -258 -133 -126 -253 -318 -316 -507 -30 -89 -97 -373 -171
-722 -36 -170 -56 -278 -105 -590 -19 -118 -75 -343 -105 -420 -119 -309 -347
-559 -624 -687 -241 -112 -479 -154 -746 -131 -102 8 -140 22 -140 50 0 6 41
33 90 59 156 83 369 280 499 463 185 260 364 634 436 910 25 95 26 110 25 364
0 146 -1 276 -1 290 -2 73 -46 324 -65 361 -7 14 -26 82 -43 150 -39 163 -56
206 -132 335 -44 73 -90 134 -146 191 -46 47 -83 88 -83 93 0 5 16 41 35 81
l35 73 -38 30 c-20 17 -64 56 -96 89 -53 52 -61 56 -69 40 -6 -10 -13 -20 -17
-23 -3 -3 -52 -69 -109 -148 -96 -133 -104 -142 -129 -135 -53 13 -118 56
-182 122 -124 125 -153 174 -164 276 -3 32 -10 63 -15 68 -10 10 -316 29 -411
25 -36 -2 -96 -4 -135 -5z"/>
<path d="M2817 8083 c-4 -3 -7 -11 -7 -17 0 -6 5 -5 12 2 6 6 9 14 7 17 -3 3
-9 2 -12 -2z"/>
<path d="M11722 3700 c0 -14 2 -19 5 -12 2 6 2 18 0 25 -3 6 -5 1 -5 -13z"/>
<path d="M11711 3644 c0 -11 3 -14 6 -6 3 7 2 16 -1 19 -3 4 -6 -2 -5 -13z"/>
<path d="M11681 3464 c0 -11 3 -14 6 -6 3 7 2 16 -1 19 -3 4 -6 -2 -5 -13z"/>
</g>
</svg>
