<?xml version="1.0" standalone="no"?>
<!DOCTYPE svg PUBLIC "-//W3C//DTD SVG 20010904//EN"
 "http://www.w3.org/TR/2001/REC-SVG-20010904/DTD/svg10.dtd">
<svg version="1.0" xmlns="http://www.w3.org/2000/svg"
 width="1412.000000pt" height="1412.000000pt" viewBox="0 0 1412.000000 1412.000000"
 preserveAspectRatio="xMidYMid meet">
<metadata>
Created by potrace 1.14, written by Peter Selinger 2001-2017
</metadata>
<g transform="translate(0.000000,1412.000000) scale(0.100000,-0.100000)"
fill="#000000" stroke="none">
<path d="M8968 12566 c-51 -74 -119 -178 -152 -232 -38 -63 -61 -92 -66 -84
-4 7 -13 9 -19 6 -7 -4 -11 0 -11 12 0 22 -30 52 -52 52 -30 0 -138 -96 -208
-185 -86 -108 -120 -140 -225 -210 -102 -67 -135 -83 -270 -133 -184 -67 -176
-68 -670 28 -98 19 -293 74 -304 87 -11 11 178 -8 332 -33 196 -33 310 -39
422 -25 234 30 397 96 514 207 74 69 138 151 127 161 -3 3 -13 0 -22 -8 -16
-13 -16 -12 -4 8 12 18 11 25 -4 48 -21 32 -1 37 -235 -59 -240 -98 -327 -119
-496 -120 -102 -1 -165 6 -295 29 -155 28 -180 29 -430 29 -211 0 -279 -3
-335 -16 -156 -37 -47 3 185 67 52 15 113 33 135 41 l40 14 -55 -4 -55 -5 68
19 c60 16 96 39 97 63 0 13 -252 7 -360 -9 -58 -8 -119 -17 -137 -20 -17 -2
-44 -9 -60 -16 -15 -6 -36 -13 -46 -14 -35 -7 -147 -63 -217 -108 l-71 -47
-87 12 c-226 30 -401 -18 -642 -177 -255 -167 -436 -391 -533 -659 -14 -38
-28 -78 -32 -88 -4 -10 -55 -54 -114 -100 -58 -45 -119 -93 -136 -108 -16 -14
-70 -62 -120 -106 -157 -138 -403 -303 -532 -357 -89 -37 -137 -66 -243 -146
-41 -31 -172 -125 -290 -210 -261 -186 -324 -235 -464 -364 -131 -121 -272
-283 -355 -409 -34 -51 -107 -181 -162 -289 -55 -109 -101 -198 -102 -198 -1
0 -1 68 1 152 2 84 1 150 -2 147 -3 -3 -10 -30 -15 -60 l-9 -54 -1 68 c-1 79
-15 115 -36 97 -23 -19 -112 -310 -122 -400 -3 -25 -7 -61 -9 -80 -6 -43 -15
-145 -20 -225 -10 -135 -27 -208 -90 -398 -37 -110 -81 -257 -98 -329 l-32
-129 -60 133 c-67 150 -164 302 -254 398 -60 64 -67 65 -27 5 19 -28 17 -27
-19 7 -29 27 -45 36 -61 32 -21 -6 -21 -7 -6 -57 37 -128 70 -211 130 -337
126 -263 172 -387 208 -568 16 -76 15 -87 -14 -348 -56 -499 -64 -833 -26
-1079 21 -137 79 -381 130 -555 24 -80 53 -183 65 -230 11 -47 24 -92 27 -100
3 -8 5 -22 4 -32 -1 -9 3 -19 8 -22 6 -4 8 -13 5 -21 -3 -8 -2 -20 2 -27 4 -7
9 -22 11 -33 5 -35 10 -60 13 -60 1 0 3 -9 4 -20 6 -43 19 -91 29 -103 5 -7 7
-15 4 -19 -4 -3 -2 -12 4 -20 6 -7 8 -13 4 -13 -4 0 -2 -7 5 -15 7 -8 9 -15 6
-15 -4 0 -2 -9 4 -21 7 -11 14 -32 16 -46 3 -14 12 -40 21 -57 10 -17 16 -34
15 -38 -1 -5 2 -8 8 -8 6 0 9 -3 8 -7 -4 -15 13 -53 23 -53 6 0 7 -4 4 -10 -3
-5 -1 -10 4 -10 6 0 11 -6 11 -13 0 -8 9 -24 20 -37 11 -13 20 -29 20 -37 0
-7 5 -13 10 -13 6 0 10 -6 10 -14 0 -8 7 -16 15 -20 8 -3 15 -12 15 -21 0 -8
5 -15 10 -15 6 0 10 -7 10 -15 0 -8 9 -19 20 -25 11 -6 20 -17 20 -25 0 -8 9
-19 20 -25 11 -6 20 -17 20 -25 0 -8 9 -19 20 -25 11 -6 20 -16 20 -23 0 -6
11 -23 25 -37 29 -30 84 -91 125 -140 17 -19 56 -64 89 -100 32 -36 64 -83 71
-105 41 -126 251 -467 404 -655 34 -41 77 -95 95 -120 l33 -45 -48 51 c-27 27
-85 96 -129 152 -81 103 -115 133 -74 65 l22 -38 -36 42 c-39 44 -77 50 -77
12 0 -37 42 -144 103 -264 48 -95 74 -133 123 -182 76 -75 229 -177 472 -314
l183 -103 337 -333 c185 -183 340 -333 344 -333 4 0 28 -23 54 -50 26 -28 53
-50 60 -50 8 0 14 -4 14 -10 0 -11 135 -120 148 -120 6 0 13 -7 16 -16 3 -8
10 -12 16 -9 5 3 10 2 10 -3 0 -19 228 -153 280 -164 8 -2 21 -9 28 -15 12
-11 27 -15 48 -12 4 0 10 -4 13 -9 3 -5 56 -30 116 -55 61 -25 136 -57 168
-71 31 -14 57 -22 57 -18 0 4 4 2 8 -4 10 -16 250 -116 261 -109 5 3 11 1 13
-5 1 -5 17 -11 33 -13 17 -2 36 -7 43 -11 7 -4 16 -5 21 -1 5 3 12 1 16 -4 3
-5 13 -10 23 -10 9 0 35 -3 57 -7 22 -4 87 -7 145 -6 58 1 276 4 485 6 356 5
440 8 540 21 22 2 58 6 80 9 22 2 114 15 205 30 91 14 215 32 275 41 61 9 117
19 125 22 8 3 42 7 75 9 33 2 71 7 85 10 14 4 41 6 61 5 21 -1 40 3 44 8 3 6
11 9 16 5 9 -5 151 12 179 23 8 3 29 7 45 9 27 2 449 125 485 141 8 3 19 5 24
4 4 -1 14 3 20 9 7 5 15 8 18 5 5 -5 198 58 220 71 7 5 18 9 23 10 6 1 28 10
50 19 22 10 45 19 50 20 24 6 120 50 126 58 3 5 8 8 10 6 9 -5 79 23 79 32 0
6 4 8 9 5 5 -3 25 5 45 19 20 13 36 23 36 21 0 -2 35 16 77 40 43 24 83 44 90
44 7 0 13 5 13 11 0 5 5 7 10 4 6 -3 10 -2 10 2 0 9 59 37 73 34 4 0 7 4 7 10
0 5 5 7 10 4 6 -3 10 -2 10 3 0 5 20 17 45 26 25 10 45 22 45 27 0 5 3 8 8 7
12 -3 62 25 62 34 0 5 5 6 10 3 6 -3 10 -2 10 2 0 5 16 15 35 22 19 7 35 17
35 22 0 5 6 9 14 9 8 0 21 7 30 15 8 9 17 15 18 14 8 -3 58 25 58 33 0 4 6 8
13 8 8 0 24 9 37 20 13 11 27 20 33 20 5 0 22 11 39 25 16 14 36 25 44 25 8 0
14 5 14 10 0 6 5 10 10 10 6 0 20 9 32 20 12 11 28 20 35 20 7 0 13 5 13 10 0
6 6 10 14 10 8 0 16 7 20 15 3 8 12 15 20 15 9 0 20 9 26 20 6 11 15 20 21 20
9 0 209 201 266 268 15 18 38 43 51 56 12 13 22 27 22 31 0 4 10 18 23 30 61
60 295 381 381 524 66 109 337 637 396 771 18 41 35 70 37 64 6 -18 -57 -385
-77 -444 -10 -30 -51 -116 -90 -190 -104 -199 -213 -417 -198 -399 7 9 58 98
113 197 55 99 101 179 103 177 2 -1 -30 -66 -72 -142 -151 -283 -177 -346
-152 -370 3 -4 13 2 21 13 27 34 100 136 111 156 7 11 17 25 24 31 10 9 12 8
6 -6 -3 -10 0 -28 8 -39 13 -19 15 -18 39 14 44 57 144 275 183 397 63 200 71
222 132 371 227 553 344 1124 368 1790 10 268 -19 527 -68 624 -19 37 -20 51
-14 195 3 86 14 214 23 286 l16 129 14 -39 c8 -22 50 -177 93 -345 90 -347
126 -476 141 -499 9 -13 10 -14 6 -1 -11 36 -28 132 -25 135 2 2 14 -33 27
-79 19 -66 29 -86 47 -95 24 -11 24 -11 24 59 0 151 -36 368 -111 660 -46 181
-70 254 -207 650 -78 224 -129 394 -156 519 -24 109 -40 146 -56 136 -16 -10
-39 35 -79 155 -75 222 -119 299 -207 367 -28 20 -35 22 -58 12 -14 -7 -26
-16 -26 -21 0 -4 -6 -8 -14 -8 -41 0 -51 -151 -21 -324 14 -82 15 -106 4 -143
-11 -41 -10 -149 5 -393 3 -49 2 -54 -3 -20 -7 48 -10 45 -26 -35 -3 -13 0
-291 6 -617 6 -326 10 -746 9 -933 -1 -331 -2 -341 -24 -395 -59 -138 -136
-309 -159 -350 -14 -25 -29 -60 -32 -79 -3 -19 -10 -42 -16 -52 -5 -10 -9 -42
-8 -71 2 -94 -70 -266 -146 -347 -31 -33 -67 -99 -134 -240 -50 -106 -106
-213 -126 -236 -51 -62 -131 -123 -390 -295 -262 -174 -394 -271 -445 -326
-39 -42 -39 -42 111 72 52 39 191 135 309 214 236 157 311 210 353 248 15 14
27 22 26 16 -1 -17 -115 -101 -374 -274 -346 -231 -459 -322 -461 -373 -1 -15
0 -27 3 -27 12 0 82 43 203 124 74 50 148 100 165 111 39 26 -266 -304 -431
-466 -105 -102 -161 -146 -299 -238 -93 -62 -215 -134 -270 -161 -135 -66
-216 -81 -440 -84 -142 -2 -179 -6 -177 -16 2 -7 -1 -16 -7 -19 -5 -3 -12 -22
-16 -42 -7 -36 -6 -37 31 -49 45 -15 372 -8 443 10 24 6 45 9 48 7 2 -2 -29
-31 -69 -63 -40 -32 -116 -96 -168 -142 -66 -59 -124 -98 -190 -132 -52 -26
-185 -95 -294 -154 -182 -96 -210 -108 -328 -136 -108 -26 -157 -32 -291 -37
-141 -5 -184 -2 -332 20 -243 37 -352 42 -531 23 -256 -26 -460 -81 -707 -191
-67 -30 -125 -55 -129 -55 -10 0 -335 260 -435 348 -95 82 -216 180 -263 212
-28 19 -23 11 25 -41 33 -35 44 -50 25 -33 -88 78 -140 98 -140 54 0 -34 99
-167 189 -252 49 -47 152 -136 230 -198 77 -63 139 -116 137 -118 -11 -11
-181 43 -256 81 -88 44 -488 313 -665 446 -149 112 -240 209 -349 373 -123
186 -283 480 -292 539 -4 24 -20 78 -36 120 l-29 76 -58 2 c-40 1 -62 -3 -71
-14 -17 -20 -7 -236 14 -295 l16 -45 -72 79 c-75 82 -221 202 -437 360 -67 49
-127 98 -132 108 -10 19 -35 149 -65 343 -16 109 -79 334 -100 362 -11 16 -12
13 -4 -17 17 -61 10 -67 -13 -10 -18 44 -27 55 -46 56 l-24 2 7 -112 c4 -61
10 -183 12 -271 l4 -159 -46 44 c-157 152 -253 397 -338 855 -52 282 -53 291
-81 535 -38 337 -54 394 -234 819 -139 329 -187 486 -231 756 -40 243 -24 437
65 790 85 334 112 414 195 582 116 233 249 449 420 678 53 72 105 144 115 160
22 34 -58 -51 -118 -126 -21 -27 -41 -49 -43 -49 -3 0 21 33 52 73 114 144
141 187 111 179 -6 -2 -5 4 3 12 25 31 -12 17 -67 -26 -77 -59 -165 -157 -260
-289 -82 -115 -241 -371 -303 -487 -18 -34 -35 -60 -38 -58 -9 10 154 479 212
610 17 38 55 91 104 145 43 47 136 155 207 239 198 237 286 304 715 550 96 55
222 128 280 162 58 35 182 103 275 152 187 99 293 173 357 251 l42 52 -40 -36
c-21 -20 -61 -53 -89 -75 -38 -29 -31 -19 31 41 82 81 113 138 72 132 -10 -2
-73 -38 -139 -81 -66 -43 -200 -119 -297 -170 -97 -51 -208 -112 -247 -136
-38 -24 -180 -106 -315 -183 -315 -179 -447 -267 -550 -364 l-84 -78 30 54
c61 113 156 196 404 353 146 93 295 170 466 244 307 131 453 211 598 328 95
77 170 123 391 241 175 93 428 251 485 302 32 29 80 83 108 120 52 72 136 215
152 261 l10 27 -19 -25 c-45 -58 -51 -62 -27 -18 14 26 26 55 26 66 0 11 16
30 38 45 73 51 389 166 556 202 110 25 291 16 441 -20 159 -38 373 -73 500
-81 185 -11 443 25 651 91 60 18 141 39 179 45 289 45 491 122 670 254 99 73
391 364 511 509 107 129 154 204 194 308 29 75 40 157 21 144 -5 -3 -22 6 -37
20 -15 14 -33 25 -39 25 -7 0 -58 -49 -114 -109 -86 -93 -353 -340 -443 -410
-22 -18 -12 7 58 146 108 213 154 323 153 365 l-1 33 -14 -30 c-14 -29 -15
-29 -10 -4 5 21 0 30 -19 43 -13 9 -29 16 -34 16 -6 0 -52 -60 -103 -134z
m-2171 -332 c-3 -3 -12 -4 -19 -1 -8 3 -5 6 6 6 11 1 17 -2 13 -5z m-941 -328
c-6 -13 -26 -36 -44 -51 -18 -15 -32 -31 -32 -37 0 -6 -11 -19 -26 -30 -14
-11 -23 -23 -20 -25 3 -3 -5 -14 -17 -24 -12 -10 -19 -18 -16 -19 4 0 -12 -20
-35 -44 -31 -33 -69 -56 -156 -95 -63 -28 -180 -87 -260 -130 -80 -44 -146
-78 -148 -76 -14 14 104 169 196 257 81 78 232 183 340 237 63 32 154 59 204
60 25 1 26 0 14 -23z m629 -66 c4 -6 -9 -10 -32 -9 -30 0 -34 2 -18 9 27 12
43 12 50 0z m-1155 -123 c0 -2 -10 -12 -22 -23 l-23 -19 19 23 c18 21 26 27
26 19z m3336 -112 c-11 -8 -25 -15 -30 -15 -6 1 0 7 14 15 32 19 40 18 16 0z
m-76 -35 c-8 -5 -19 -10 -25 -10 -5 0 -3 5 5 10 8 5 20 10 25 10 6 0 3 -5 -5
-10z m-66 -25 c-17 -8 -44 -16 -60 -20 -16 -3 -6 4 21 14 57 22 86 26 39 6z
m-97 -31 c-3 -3 -12 -4 -19 -1 -8 3 -5 6 6 6 11 1 17 -2 13 -5z m-37 -8 c0 -2
-9 -6 -20 -9 -11 -3 -18 -1 -14 4 5 9 34 13 34 5z m-2766 -518 c-49 -50 -123
-123 -164 -162 -41 -39 -78 -75 -82 -81 -4 -5 -8 -7 -8 -2 0 8 -81 -42 -91
-56 -3 -5 -9 -8 -13 -8 -3 1 -21 -6 -39 -15 -31 -16 -31 -15 13 31 107 112
437 382 469 385 3 0 -36 -41 -85 -92z m16 -182 c0 -2 -8 -10 -17 -17 -16 -13
-17 -12 -4 4 13 16 21 21 21 13z m-40 -49 c0 -2 -17 -19 -37 -38 l-38 -34 34
38 c33 34 41 42 41 34z m-90 -81 c0 -2 -8 -10 -17 -17 -16 -13 -17 -12 -4 4
13 16 21 21 21 13z m-780 -192 c-156 -156 -256 -234 -315 -244 -3 0 -52 -21
-110 -45 -94 -39 -153 -74 -274 -161 -19 -13 -38 -24 -43 -24 -15 0 157 138
332 268 85 64 180 136 210 162 35 30 91 62 155 90 55 23 111 48 125 56 14 7
27 13 30 14 2 0 -47 -52 -110 -116z m350 -69 c0 -2 -10 -9 -22 -15 -22 -11
-22 -10 -4 4 21 17 26 19 26 11z m-960 -239 c0 -2 -8 -10 -17 -17 -16 -13 -17
-12 -4 4 13 16 21 21 21 13z m460 -271 c0 -2 -13 -11 -30 -20 -38 -19 -40 -11
-2 9 31 17 32 18 32 11z m-320 -170 c0 -2 -10 -9 -22 -15 -22 -11 -22 -10 -4
4 21 17 26 19 26 11z m-880 -538 c0 -2 -12 -14 -27 -28 l-28 -24 24 28 c23 25
31 32 31 24z m-110 -110 c0 -2 -15 -16 -32 -33 l-33 -29 29 33 c28 30 36 37
36 29z m-70 -80 c0 -2 -12 -14 -27 -28 l-28 -24 24 28 c23 25 31 32 31 24z
m-60 -70 c0 -2 -10 -12 -22 -23 l-23 -19 19 23 c18 21 26 27 26 19z m-40 -50
c0 -2 -10 -12 -22 -23 l-23 -19 19 23 c18 21 26 27 26 19z m-863 -39 c-3 -8
-6 -5 -6 6 -1 11 2 17 5 13 3 -3 4 -12 1 -19z m813 -21 c0 -2 -15 -16 -32 -33
l-33 -29 29 33 c28 30 36 37 36 29z m100 -301 c0 -2 -8 -10 -17 -17 -16 -13
-17 -12 -4 4 13 16 21 21 21 13z m-30 -40 c0 -2 -8 -10 -17 -17 -16 -13 -17
-12 -4 4 13 16 21 21 21 13z m-160 -236 c-6 -11 -13 -20 -16 -20 -2 0 0 9 6
20 6 11 13 20 16 20 2 0 0 -9 -6 -20z m-945 -1055 c-9 -71 -18 -147 -20 -169
-22 -190 -26 -663 -6 -851 27 -267 93 -621 157 -844 19 -68 33 -125 31 -127
-7 -7 -153 326 -185 422 -69 205 -79 315 -58 604 8 118 18 334 21 480 7 290
16 432 42 615 l17 120 9 -60 c5 -41 3 -101 -8 -190z m9582 -162 c-3 -10 -5 -2
-5 17 0 19 2 27 5 18 2 -10 2 -26 0 -35z m-9300 -35 c-3 -7 -5 -2 -5 12 0 14
2 19 5 13 2 -7 2 -19 0 -25z m-10 -140 c-2 -13 -4 -3 -4 22 0 25 2 35 4 23 2
-13 2 -33 0 -45z m9320 -5 c-2 -16 -4 -5 -4 22 0 28 2 40 4 28 2 -13 2 -35 0
-50z m-9326 -210 c-3 -120 -11 -119 -11 2 0 54 3 95 6 92 4 -4 6 -46 5 -94z
m0 -236 c1 -26 -1 -50 -4 -54 -4 -3 -7 20 -7 52 0 69 9 70 11 2z m6 -179 c-2
-13 -4 -5 -4 17 -1 22 1 32 4 23 2 -10 2 -28 0 -40z m9330 -75 c-2 -16 -4 -5
-4 22 0 28 2 40 4 28 2 -13 2 -35 0 -50z m-9320 -20 c-3 -10 -5 -2 -5 17 0 19
2 27 5 18 2 -10 2 -26 0 -35z m10 -80 c-3 -10 -5 -4 -5 12 0 17 2 24 5 18 2
-7 2 -21 0 -30z m10 -70 c-3 -10 -5 -4 -5 12 0 17 2 24 5 18 2 -7 2 -21 0 -30z
m10 -65 c-3 -8 -6 -5 -6 6 -1 11 2 17 5 13 3 -3 4 -12 1 -19z m10 -60 c-3 -7
-5 -2 -5 12 0 14 2 19 5 13 2 -7 2 -19 0 -25z m10080 -20 c-3 -8 -6 -5 -6 6
-1 11 2 17 5 13 3 -3 4 -12 1 -19z m-10070 -40 c-3 -7 -5 -2 -5 12 0 14 2 19
5 13 2 -7 2 -19 0 -25z m9270 -130 c-2 -24 -4 -7 -4 37 0 44 2 63 4 43 2 -21
2 -57 0 -80z m520 20 c-2 -13 -4 -5 -4 17 -1 22 1 32 4 23 2 -10 2 -28 0 -40z
m-9770 5 c-3 -10 -5 -4 -5 12 0 17 2 24 5 18 2 -7 2 -21 0 -30z m10 -45 c-3
-8 -6 -5 -6 6 -1 11 2 17 5 13 3 -3 4 -12 1 -19z m9770 -285 c-1 -54 -3 -12
-3 92 0 105 2 149 3 98 2 -51 2 -136 0 -190z m-9760 235 c-3 -8 -6 -5 -6 6 -1
11 2 17 5 13 3 -3 4 -12 1 -19z m9730 -230 c-4 -139 -14 -323 -22 -408 -26
-270 -90 -623 -152 -845 -24 -87 -49 -150 -38 -95 7 34 82 466 106 610 28 170
56 435 74 700 15 235 22 290 32 290 4 0 3 -114 0 -252z m-9720 190 c-3 -8 -6
-5 -6 6 -1 11 2 17 5 13 3 -3 4 -12 1 -19z m10 -40 c-3 -8 -6 -5 -6 6 -1 11 2
17 5 13 3 -3 4 -12 1 -19z m20 -80 c-3 -8 -6 -5 -6 6 -1 11 2 17 5 13 3 -3 4
-12 1 -19z m293 -123 c22 -69 45 -160 51 -202 6 -43 13 -85 16 -93 6 -17 12
-87 12 -142 0 -21 5 -46 10 -56 5 -10 6 -24 2 -31 -6 -9 -10 -6 -13 11 -11 49
-128 630 -128 634 0 22 15 -16 50 -121z m-283 83 c-3 -8 -6 -5 -6 6 -1 11 2
17 5 13 3 -3 4 -12 1 -19z m51 -158 c0 -8 -6 1 -13 20 -7 19 -13 42 -13 50 0
8 6 -1 13 -20 7 -19 13 -42 13 -50z m9649 -122 c-2 -18 -4 -4 -4 32 0 36 2 50
4 33 2 -18 2 -48 0 -65z m-9617 37 c0 -5 -5 -3 -10 5 -5 8 -10 20 -10 25 0 6
5 3 10 -5 5 -8 10 -19 10 -25z m9607 -172 c-2 -16 -4 -3 -4 27 0 30 2 43 4 28
2 -16 2 -40 0 -55z m-9180 -25 c-3 -7 -5 -2 -5 12 0 14 2 19 5 13 2 -7 2 -19
0 -25z m9168 -98 c-4 -45 -9 -79 -12 -76 -2 2 -1 41 3 85 3 45 9 80 11 77 3
-3 2 -41 -2 -86z m-9158 -2 c-3 -7 -5 -2 -5 12 0 14 2 19 5 13 2 -7 2 -19 0
-25z m10 -80 c-3 -8 -6 -5 -6 6 -1 11 2 17 5 13 3 -3 4 -12 1 -19z m9128 -73
c-4 -31 -9 -54 -12 -51 -3 2 -1 30 2 61 4 31 9 54 12 51 3 -2 1 -30 -2 -61z
m-9118 -7 c-3 -8 -6 -5 -6 6 -1 11 2 17 5 13 3 -3 4 -12 1 -19z m-667 -238
c61 -121 108 -220 106 -220 -9 0 -107 153 -141 220 -56 111 -95 220 -80 220 3
0 54 -99 115 -220z m9765 120 c-4 -28 -9 -49 -12 -46 -3 2 -2 28 2 56 4 28 9
49 12 46 3 -2 2 -28 -2 -56z m-18 -92 c-3 -7 -5 -2 -5 12 0 14 2 19 5 13 2 -7
2 -19 0 -25z m-10 -55 c-3 -10 -5 -4 -5 12 0 17 2 24 5 18 2 -7 2 -21 0 -30z
m-22 -112 c-10 -45 -20 -79 -22 -77 -2 2 3 40 13 85 10 45 19 79 22 77 2 -3
-4 -41 -13 -85z m-9664 -58 c13 -16 12 -17 -3 -4 -10 7 -18 15 -18 17 0 8 8 3
21 -13z m30 -40 c13 -16 12 -17 -3 -4 -10 7 -18 15 -18 17 0 8 8 3 21 -13z
m9606 -15 c-3 -8 -6 -5 -6 6 -1 11 2 17 5 13 3 -3 4 -12 1 -19z m-9576 -25
c13 -16 12 -17 -3 -4 -10 7 -18 15 -18 17 0 8 8 3 21 -13z m9564 -33 c-9 -41
-17 -33 -9 9 4 17 9 30 11 27 3 -2 2 -19 -2 -36z m-9520 -20 c10 -11 16 -20
13 -20 -3 0 -13 9 -23 20 -10 11 -16 20 -13 20 3 0 13 -9 23 -20z m9502 -42
c-3 -8 -6 -5 -6 6 -1 11 2 17 5 13 3 -3 4 -12 1 -19z m-23 -77 c-9 -29 -18
-50 -21 -47 -3 2 3 28 12 56 22 67 29 60 9 -9z m-34 -98 c-11 -17 -11 -17 -6
0 3 10 6 24 7 30 0 9 2 9 5 0 3 -7 0 -20 -6 -30z m-8383 -15 c-3 -8 -6 -5 -6
6 -1 11 2 17 5 13 3 -3 4 -12 1 -19z m60 -300 c-3 -8 -6 -5 -6 6 -1 11 2 17 5
13 3 -3 4 -12 1 -19z m-222 -68 c21 -22 37 -40 34 -40 -3 0 -23 18 -44 40 -21
22 -37 40 -34 40 3 0 23 -18 44 -40z m7954 -177 c-171 -334 -225 -420 -428
-687 -161 -212 -292 -366 -382 -450 -96 -89 -226 -181 -226 -161 0 8 6 16 14
19 7 3 13 12 13 21 0 8 5 15 10 15 6 0 13 7 17 16 3 9 17 28 29 42 13 14 24
31 24 37 0 7 7 15 15 19 8 3 15 12 15 20 0 7 7 16 15 20 8 3 15 12 15 20 0 9
9 20 20 26 11 6 20 17 20 24 0 8 7 16 15 20 8 3 15 12 15 21 0 8 4 15 8 15 12
0 162 191 272 345 116 164 146 203 300 396 69 86 171 220 225 298 55 78 101
141 102 141 2 0 -47 -98 -108 -217z m-689 194 c0 -1 -51 -52 -112 -112 l-113
-110 110 113 c102 104 115 117 115 109z m-7023 -79 c-3 -8 -6 -5 -6 6 -1 11 2
17 5 13 3 -3 4 -12 1 -19z m10 -70 c-3 -8 -6 -5 -6 6 -1 11 2 17 5 13 3 -3 4
-12 1 -19z m6723 -151 c0 -2 -10 -12 -22 -23 l-23 -19 19 23 c18 21 26 27 26
19z m-6279 -284 c13 -16 12 -17 -3 -4 -17 13 -22 21 -14 21 2 0 10 -8 17 -17z
m64 -53 c10 -11 16 -20 13 -20 -3 0 -13 9 -23 20 -10 11 -16 20 -13 20 3 0 13
-9 23 -20z m105 -105 c13 -14 21 -25 18 -25 -2 0 -15 11 -28 25 -13 14 -21 25
-18 25 2 0 15 -11 28 -25z m61 -72 c13 -16 12 -17 -3 -4 -17 13 -22 21 -14 21
2 0 10 -8 17 -17z m40 -50 c13 -16 12 -17 -3 -4 -17 13 -22 21 -14 21 2 0 10
-8 17 -17z m6469 -196 c0 -2 -10 -12 -22 -23 l-23 -19 19 23 c18 21 26 27 26
19z m-1583 -33 c-3 -3 -12 -4 -19 -1 -8 3 -5 6 6 6 11 1 17 -2 13 -5z m-264
-11 c-18 -2 -48 -2 -65 0 -18 2 -4 4 32 4 36 0 50 -2 33 -4z m130 0 c-18 -2
-48 -2 -65 0 -18 2 -4 4 32 4 36 0 50 -2 33 -4z m1667 -16 c0 -2 -10 -12 -22
-23 l-23 -19 19 23 c18 21 26 27 26 19z m-50 -60 c0 -2 -12 -14 -27 -28 l-28
-24 24 28 c23 25 31 32 31 24z m-1410 -81 c0 -2 -8 -10 -17 -17 -16 -13 -17
-12 -4 4 13 16 21 21 21 13z m1340 1 c0 -1 -28 -29 -62 -62 l-63 -60 60 63
c55 58 65 67 65 59z m-1390 -41 c0 -2 -8 -10 -17 -17 -16 -13 -17 -12 -4 4 13
16 21 21 21 13z m-4379 -53 c13 -16 12 -17 -3 -4 -17 13 -22 21 -14 21 2 0 10
-8 17 -17z m4319 3 c0 -2 -8 -10 -17 -17 -16 -13 -17 -12 -4 4 13 16 21 21 21
13z m1300 -49 c0 -2 -10 -12 -22 -23 l-23 -19 19 23 c18 21 26 27 26 19z
m-5544 -39 l29 -33 -32 29 c-31 28 -38 36 -30 36 2 0 16 -15 33 -32z m5494 -2
c0 -2 -8 -10 -17 -17 -16 -13 -17 -12 -4 4 13 16 21 21 21 13z m-320 -49 c0
-1 -26 -27 -57 -57 l-58 -55 55 58 c50 53 60 62 60 54z m-5039 -64 c13 -16 12
-17 -3 -4 -17 13 -22 21 -14 21 2 0 10 -8 17 -17z m4919 -46 c0 -2 -10 -12
-22 -23 l-23 -19 19 23 c18 21 26 27 26 19z m-60 -51 c0 -2 -8 -10 -17 -17
-16 -13 -17 -12 -4 4 13 16 21 21 21 13z m-40 -29 c0 -2 -10 -12 -22 -23 l-23
-19 19 23 c18 21 26 27 26 19z m-80 -21 c-33 -30 -305 -228 -325 -236 -37 -14
-125 -39 -125 -35 0 1 17 12 38 23 114 60 155 85 280 169 138 92 158 105 132
79z m30 -20 c0 -2 -8 -10 -17 -17 -16 -13 -17 -12 -4 4 13 16 21 21 21 13z
m-5315 -126 c38 -38 67 -70 64 -70 -2 0 -36 32 -74 70 -38 39 -67 70 -64 70 2
0 36 -31 74 -70z m2828 23 c-29 -2 -77 -2 -105 0 -29 2 -6 3 52 3 58 0 81 -1
53 -3z m-230 -10 c-7 -2 -21 -2 -30 0 -10 3 -4 5 12 5 17 0 24 -2 18 -5z m380
0 c-7 -2 -21 -2 -30 0 -10 3 -4 5 12 5 17 0 24 -2 18 -5z m-480 -10 c-7 -2
-21 -2 -30 0 -10 3 -4 5 12 5 17 0 24 -2 18 -5z m554 1 c-3 -3 -12 -4 -19 -1
-8 3 -5 6 6 6 11 1 17 -2 13 -5z m-2707 -164 c63 -37 156 -91 205 -120 120
-70 211 -115 385 -190 80 -35 233 -103 340 -153 107 -49 206 -93 219 -98 45
-18 14 -19 -65 -3 -97 20 -217 62 -349 121 -55 25 -206 91 -335 147 -129 56
-267 121 -307 144 -90 53 -273 195 -338 263 l-50 52 90 -48 c50 -27 142 -79
205 -115z m2087 154 c-3 -3 -12 -4 -19 -1 -8 3 -5 6 6 6 11 1 17 -2 13 -5z
m680 0 c-3 -3 -12 -4 -19 -1 -8 3 -5 6 6 6 11 1 17 -2 13 -5z m70 -10 c-3 -3
-12 -4 -19 -1 -8 3 -5 6 6 6 11 1 17 -2 13 -5z m470 0 c-3 -3 -12 -4 -19 -1
-8 3 -5 6 6 6 11 1 17 -2 13 -5z m-394 -11 c-7 -2 -19 -2 -25 0 -7 3 -2 5 12
5 14 0 19 -2 13 -5z m300 0 c-7 -2 -21 -2 -30 0 -10 3 -4 5 12 5 17 0 24 -2
18 -5z m-155 -10 c-15 -2 -42 -2 -60 0 -18 2 -6 4 27 4 33 0 48 -2 33 -4z
m-1141 -9 c-3 -3 -12 -4 -19 -1 -8 3 -5 6 6 6 11 1 17 -2 13 -5z m541 -61
c-15 -2 -42 -2 -60 0 -18 2 -6 4 27 4 33 0 48 -2 33 -4z m-2663 -23 c10 -11
16 -20 13 -20 -3 0 -13 9 -23 20 -10 11 -16 20 -13 20 3 0 13 -9 23 -20z
m2483 -27 c-10 -2 -28 -2 -40 0 -13 2 -5 4 17 4 22 1 32 -1 23 -4z m245 0
c-18 -2 -48 -2 -65 0 -18 2 -4 4 32 4 36 0 50 -2 33 -4z m334 -10 c-20 -2 -52
-2 -70 0 -17 2 0 4 38 4 39 0 53 -2 32 -4z m-2996 -20 c13 -16 12 -17 -3 -4
-17 13 -22 21 -14 21 2 0 10 -8 17 -17z m2149 -192 c38 -6 41 -9 20 -14 -14
-3 -72 -8 -130 -10 l-105 -5 55 19 c60 19 91 21 160 10z m293 -68 c-7 -2 -21
-2 -30 0 -10 3 -4 5 12 5 17 0 24 -2 18 -5z m-100 -10 c-7 -2 -21 -2 -30 0
-10 3 -4 5 12 5 17 0 24 -2 18 -5z m-110 -10 c-13 -2 -33 -2 -45 0 -13 2 -3 4
22 4 25 0 35 -2 23 -4z m-160 -10 c-13 -2 -33 -2 -45 0 -13 2 -3 4 22 4 25 0
35 -2 23 -4z"/>
<path d="M11540 12550 c-36 -19 -103 -35 -280 -69 -121 -23 -387 -109 -475
-153 -99 -50 -324 -209 -395 -278 -75 -74 -195 -250 -265 -390 l-48 -95 17
-235 c10 -129 19 -285 19 -347 2 -110 2 -112 22 -98 73 51 353 197 478 249
226 93 354 173 463 289 63 67 84 99 138 210 35 73 88 193 119 267 30 74 66
160 80 190 13 30 34 81 46 113 20 54 123 268 153 317 11 18 10 23 -6 36 -23
17 -21 17 -66 -6z"/>
<path d="M9874 11457 c-113 -46 -249 -140 -459 -318 -407 -346 -593 -579 -601
-752 -1 -37 -7 -63 -16 -68 -10 -6 -13 -41 -12 -146 1 -151 15 -245 65 -434
26 -96 36 -122 53 -128 49 -19 337 138 499 272 113 93 275 248 340 326 141
167 264 386 293 521 15 67 20 273 10 360 -2 14 -6 57 -10 95 -13 128 -38 280
-48 293 -15 17 -23 16 -114 -21z"/>
<path d="M8574 10219 c-217 -111 -499 -286 -694 -430 -153 -112 -364 -343
-423 -464 -50 -100 -60 -145 -60 -255 0 -125 18 -202 73 -318 49 -102 88 -160
159 -236 81 -85 135 -110 241 -110 l85 -1 110 74 c161 109 298 251 417 432
132 201 215 342 293 499 66 131 67 136 56 175 -79 277 -116 491 -109 628 3 42
1 77 -3 77 -4 0 -69 -32 -145 -71z"/>
<path d="M7240 8964 c-47 -26 -87 -49 -90 -53 -3 -3 -27 -17 -53 -31 -69 -35
-203 -144 -210 -169 -5 -20 -7 -21 -274 -14 -592 13 -1046 -74 -1423 -274
-515 -273 -802 -763 -871 -1488 -18 -193 -6 -598 22 -719 38 -167 115 -407
159 -496 15 -30 44 -98 63 -150 52 -139 88 -213 173 -362 109 -191 163 -275
210 -327 22 -25 69 -84 104 -131 196 -263 447 -485 885 -781 209 -142 238
-159 348 -203 213 -86 432 -96 792 -36 215 36 396 92 504 158 281 171 500 366
746 666 22 27 53 63 68 80 15 17 62 74 105 126 42 52 85 104 95 115 38 40 174
255 213 333 21 44 41 81 44 81 10 1 46 -64 70 -124 100 -254 265 -464 470
-597 152 -99 245 -137 468 -192 185 -45 284 -56 502 -57 165 0 196 3 288 25
201 50 428 150 516 227 71 63 91 114 90 234 -3 191 -84 330 -249 426 -71 41
-153 65 -283 84 -409 58 -747 256 -937 549 -128 197 -169 327 -195 611 -13
142 -13 377 1 412 5 13 9 40 9 59 0 107 70 296 170 459 60 99 115 212 145 300
25 74 27 89 22 195 -6 152 -40 239 -121 318 -52 50 -56 52 -111 52 -69 0 -89
-10 -235 -119 -213 -159 -336 -294 -431 -474 -80 -153 -124 -313 -253 -925
-46 -219 -86 -445 -101 -576 -4 -28 -8 -53 -10 -56 -2 -4 -11 -42 -20 -86 -17
-84 -19 -91 -61 -224 -32 -103 -99 -238 -167 -340 -169 -252 -405 -410 -750
-499 -162 -42 -276 -53 -422 -40 -155 14 -158 15 -172 38 -11 18 -6 23 73 66
154 84 385 300 513 480 191 271 359 627 433 919 l30 121 -6 285 c-7 327 -25
461 -85 645 -10 33 -29 101 -40 150 -38 160 -150 362 -262 470 -97 94 -95 90
-54 176 l35 73 -38 30 c-108 86 -215 223 -273 351 -34 77 -69 197 -69 242 0
18 -3 33 -7 33 -5 0 -46 -21 -93 -46z"/>
<path d="M9760 8860 c0 -5 7 -10 16 -10 8 0 12 5 9 10 -3 6 -10 10 -16 10 -5
0 -9 -4 -9 -10z"/>
</g>
</svg>
